<?xml version="1.0" encoding="utf-8"?>
<!-- Generator: Adobe Illustrator 21.1.0, SVG Export Plug-In . SVG Version: 6.00 Build 0)  -->
<svg version="1.1" id="Layer_1" xmlns="http://www.w3.org/2000/svg" xmlns:xlink="http://www.w3.org/1999/xlink" x="0px" y="0px"
	 viewBox="0 0 616.46918 245.9877" style="enable-background:new 0 0 616.46918 245.9877;" xml:space="preserve">
<style type="text/css">
	.st0{fill:#36516E;}
	.st1{fill:#2F7AAC;}
	.st2{fill:#587992;}
	.st3{fill:#478ECC;}
</style>
<g>
	<g>
		<path class="st0" d="M30.40436,187.34569l-1.68213-4.93457H16.64215l-1.56982,4.93457H7.22272l10.67578-31.39941h9.15039
			l10.69922,31.39941H30.40436z M18.81842,175.6826h7.60986l-3.93164-11.52734L18.81842,175.6826z"/>
		<path class="st0" d="M53.35748,164.28905c2.39209,0,4.38818,0.82324,5.98828,2.46777
			c1.59961,1.64453,2.3999,3.91797,2.3999,6.81836v13.77051h-6.72852v-12.78418c0-1.31543-0.36621-2.32422-1.09863-3.02734
			c-0.7334-0.70215-1.66748-1.05469-2.80371-1.05469c-1.28613,0-2.30322,0.38965-3.05029,1.16602
			c-0.74756,0.77832-1.12158,1.92969-1.12158,3.4541v12.24609H40.2149v-22.42773h6.72803v2.10742
			C48.28864,165.20213,50.42633,164.28905,53.35748,164.28905z"/>
		<path class="st0" d="M79.50836,171.37694h-4.62012v7.93945c0,0.89746,0.35889,1.46582,1.07666,1.7041
			c0.71777,0.24023,1.89844,0.31445,3.54346,0.22461v6.10059c-4.27686,0.44824-7.2373,0.03711-8.88135-1.2334
			c-1.64502-1.27051-2.46729-3.53613-2.46729-6.7959v-7.93945h-3.58838v-6.45898h3.58838v-4.26172l6.72852-2.01855v6.28027h4.62012
			V171.37694z"/>
		<path class="st0" d="M96.46393,164.28905c2.39209,0,4.38818,0.82324,5.98828,2.46777
			c1.59961,1.64453,2.3999,3.91797,2.3999,6.81836v13.77051H98.1236v-12.78418c0-1.31543-0.36621-2.32422-1.09863-3.02734
			c-0.7334-0.70215-1.66748-1.05469-2.80371-1.05469c-1.28613,0-2.30322,0.38965-3.05029,1.16602
			c-0.74756,0.77832-1.12158,1.92969-1.12158,3.4541v12.24609h-6.72803v-31.39941h6.72803v11.0791
			C91.39508,165.20213,93.53278,164.28905,96.46393,164.28905z"/>
		<path class="st0" d="M128.67047,184.54198c-2.30322,2.28809-5.11377,3.43164-8.43311,3.43164s-6.13037-1.14355-8.43262-3.43164
			c-2.30322-2.28711-3.4541-5.09082-3.4541-8.41016s1.15088-6.12305,3.4541-8.41113
			c2.30225-2.28711,5.11328-3.43164,8.43262-3.43164s6.12988,1.14453,8.43311,3.43164c2.30225,2.28809,3.4541,5.0918,3.4541,8.41113
			S130.97272,182.25487,128.67047,184.54198z M116.55914,179.94432c0.98682,0.9873,2.21289,1.48047,3.67822,1.48047
			c1.46484,0,2.69141-0.49316,3.67822-1.48047c0.98682-0.98633,1.48047-2.25781,1.48047-3.8125s-0.49365-2.82617-1.48047-3.81348
			c-0.98682-0.98633-2.21338-1.47949-3.67822-1.47949c-1.46533,0-2.69141,0.49316-3.67822,1.47949
			c-0.98682,0.9873-1.47998,2.25879-1.47998,3.81348S115.57233,178.95799,116.55914,179.94432z"/>
		<path class="st0" d="M149.07965,164.28905c2.39209,0,4.38818,0.82324,5.98828,2.46777
			c1.59961,1.64453,2.3999,3.91797,2.3999,6.81836v13.77051h-6.72852v-12.78418c0-1.31543-0.36621-2.32422-1.09863-3.02734
			c-0.7334-0.70215-1.66748-1.05469-2.80371-1.05469c-1.28613,0-2.30322,0.38965-3.05029,1.16602
			c-0.74756,0.77832-1.12158,1.92969-1.12158,3.4541v12.24609h-6.72803v-22.42773h6.72803v2.10742
			C144.0108,165.20213,146.1485,164.28905,149.07965,164.28905z"/>
		<path class="st0" d="M175.7691,164.91795h7.17725l-7.67041,21.75488c-1.25586,3.52832-2.90869,6.05566-4.95654,7.58105
			c-2.04883,1.52441-4.6582,2.21191-7.82764,2.06348v-6.28027c1.55469,0,2.75098-0.27734,3.58838-0.83008
			c0.83691-0.55371,1.50977-1.51758,2.01855-2.89258l-8.92627-21.39648h7.40137l4.979,13.72559L175.7691,164.91795z"/>
		<path class="st0" d="M189.89899,180.39256l-3.58838,13.2334h-5.38281l1.79443-13.2334H189.89899z"/>
		<path class="st0" d="M217.70905,155.94627c3.08008,0,5.68164,1.04688,7.80518,3.13965
			c2.12305,2.09375,3.18506,4.63574,3.18506,7.62598s-1.06201,5.53223-3.18506,7.625
			c-2.12354,2.09375-4.7251,3.14062-7.80518,3.14062h-4.70996v9.86816h-7.17676v-31.39941H217.70905z M217.70905,170.74901
			c1.10596,0,2.01855-0.38867,2.73633-1.16602s1.07666-1.73438,1.07666-2.87109s-0.35889-2.09277-1.07666-2.87109
			c-0.71777-0.77734-1.63037-1.16602-2.73633-1.16602h-4.70996v8.07422H217.70905z"/>
		<path class="st0" d="M247.00006,164.91795h6.72852v22.42773h-6.72852v-2.1084c-1.58545,1.82422-3.81299,2.73633-6.68359,2.73633
			c-2.96045,0-5.48779-1.14355-7.58057-3.43164c-2.09375-2.28711-3.14014-5.09082-3.14014-8.41016s1.04639-6.12305,3.14014-8.41113
			c2.09277-2.28711,4.62012-3.43164,7.58057-3.43164c2.87061,0,5.09814,0.91309,6.68359,2.73633V164.91795z M237.80426,180.12401
			c0.98682,0.98633,2.27246,1.48047,3.85791,1.48047c1.58447,0,2.87061-0.49414,3.85742-1.48047
			c0.98682-0.9873,1.48047-2.31738,1.48047-3.99219s-0.49365-3.00586-1.48047-3.99219
			c-0.98682-0.9873-2.27295-1.48047-3.85742-1.48047c-1.58545,0-2.87109,0.49316-3.85791,1.48047
			c-0.98682,0.98633-1.47998,2.31738-1.47998,3.99219S236.81744,179.1367,237.80426,180.12401z"/>
		<path class="st0" d="M273.15045,164.91795h6.72852v22.42773h-6.72852v-2.1084c-1.3457,1.82422-3.48389,2.73633-6.41455,2.73633
			c-2.39258,0-4.38867-0.82227-5.98828-2.4668c-1.6001-1.64453-2.39941-3.91699-2.39941-6.81836v-13.77051h6.72803v12.7832
			c0,1.31641,0.36621,2.32617,1.09912,3.02832c0.73242,0.70312,1.66699,1.05371,2.80371,1.05371
			c1.28516,0,2.30225-0.3877,3.05029-1.16602c0.74707-0.77734,1.12109-1.92871,1.12109-3.4541V164.91795z"/>
		<path class="st0" d="M284.81305,187.34569v-32.74512h6.72803v32.74512H284.81305z"/>
		<path class="st0" d="M315.67487,184.54198c-2.30371,2.28809-5.11426,3.43164-8.43359,3.43164
			c-3.31982,0-6.13086-1.14355-8.43311-3.43164c-2.30322-2.28711-3.4541-5.09082-3.4541-8.41016s1.15088-6.12305,3.4541-8.41113
			c2.30225-2.28711,5.11328-3.43164,8.43311-3.43164c3.31934,0,6.12988,1.14453,8.43359,3.43164
			c2.30176,2.28809,3.45312,5.0918,3.45312,8.41113S317.97662,182.25487,315.67487,184.54198z M303.56256,179.94432
			c0.98682,0.9873,2.21289,1.48047,3.67871,1.48047c1.46484,0,2.69141-0.49316,3.67871-1.48047
			c0.98633-0.98633,1.47949-2.25781,1.47949-3.8125s-0.49316-2.82617-1.47949-3.81348
			c-0.9873-0.98633-2.21387-1.47949-3.67871-1.47949c-1.46582,0-2.69189,0.49316-3.67871,1.47949
			c-0.98682,0.9873-1.47998,2.25879-1.47998,3.81348S302.57574,178.95799,303.56256,179.94432z"/>
		<path class="st0" d="M336.35358,164.91795h7.44629l-8.34668,22.42773h-7.53027l-8.3457-22.42773h7.44629l4.66602,14.15625
			L336.35358,164.91795z"/>
		<path class="st0" d="M352.47858,161.75487c-0.79297,0.79297-1.74219,1.18848-2.84863,1.18848s-2.05566-0.39551-2.84766-1.18848
			c-0.79297-0.79199-1.18945-1.74121-1.18945-2.84766s0.39648-2.05566,1.18945-2.84863
			c0.79199-0.79199,1.74121-1.18848,2.84766-1.18848s2.05566,0.39648,2.84863,1.18848
			c0.79199,0.79297,1.18848,1.74219,1.18848,2.84863S353.27057,160.96288,352.47858,161.75487z M346.26569,187.34569v-22.42773
			h6.72852v22.42773H346.26569z"/>
		<path class="st0" d="M368.69342,187.97362c-3.40918,0-6.24219-1.13574-8.5-3.40918
			c-2.25879-2.27246-3.38672-5.08301-3.38672-8.43262c0-3.34863,1.12793-6.16016,3.38672-8.43359
			c2.25781-2.27148,5.09082-3.40918,8.5-3.40918c2.15332,0,4.13379,0.52441,5.94336,1.57031
			c1.80957,1.04688,3.20801,2.4375,4.19434,4.17188l-5.87598,3.40918c-0.80762-1.6748-2.25879-2.51172-4.35156-2.51172
			c-1.46484,0-2.67676,0.48633-3.63281,1.45703c-0.95801,0.97266-1.43555,2.2207-1.43555,3.74609
			c0,1.52441,0.47754,2.77344,1.43555,3.74512c0.95605,0.97266,2.16797,1.45801,3.63281,1.45801
			c2.12305,0,3.57324-0.83691,4.35156-2.51172l5.87598,3.36426c-0.98633,1.76465-2.37695,3.16992-4.17188,4.21582
			C372.8653,187.45018,370.87604,187.97362,368.69342,187.97362z"/>
		<path class="st0" d="M394.66608,164.28905c2.3916,0,4.3877,0.82324,5.98828,2.46777
			c1.59863,1.64453,2.39941,3.91797,2.39941,6.81836v13.77051h-6.72852v-12.78418c0-1.31543-0.36621-2.32422-1.09863-3.02734
			c-0.7334-0.70215-1.66797-1.05469-2.80371-1.05469c-1.28613,0-2.30273,0.38965-3.0498,1.16602
			c-0.74805,0.77832-1.12207,1.92969-1.12207,3.4541v12.24609h-6.72852v-31.39941h6.72852v11.0791
			C389.59674,165.20213,391.73444,164.28905,394.66608,164.28905z"/>
		<path class="st0" d="M445.93658,185.28221l-5.60742,3.22949l-2.76855-3c-2.36328,1.6416-5.07227,2.46191-8.12402,2.46191
			c-3.29199,0-5.98535-0.85254-8.0791-2.55664c-2.09473-1.70508-3.14258-4.00684-3.14258-6.9082
			c0-1.82324,0.44141-3.52832,1.32324-5.11328s2.11523-2.88574,3.70117-3.90234c-0.86816-1.49512-1.30078-3.15527-1.30078-4.97949
			c0-2.66113,0.93359-4.85938,2.80371-6.59375c1.86816-1.73438,4.29785-2.60156,7.28906-2.60156
			c2.33203,0,4.39551,0.58301,6.18945,1.74902c1.79492,1.16699,3.16992,2.87109,4.12695,5.11426l-6.14551,3.54297
			c-0.86719-2.27148-2.22754-3.40918-4.08105-3.40918c-0.89746,0-1.62305,0.24707-2.17578,0.73926
			c-0.55371,0.49219-0.83008,1.12695-0.83008,1.90234c0,0.53809,0.12891,1.08301,0.38672,1.63477
			c0.25781,0.55273,0.52637,0.98438,0.80664,1.29492c0.28027,0.3125,0.71973,0.80273,1.32031,1.46973l5.78906,6.44336
			c0.61914-1.42969,1.10547-3.06934,1.46094-4.91602l5.96875,3.40527c-0.6582,2.44922-1.61523,4.64453-2.87109,6.58594
			L445.93658,185.28221z M430.00983,181.42479c1.16504,0,2.21191-0.23047,3.13867-0.69336l-5.7207-6.19824l-0.27344-0.29688
			c-1.11523,0.89844-1.67285,2.06738-1.67285,3.50488c0,1.10742,0.37402,1.99902,1.12109,2.67285
			S428.48541,181.42479,430.00983,181.42479z"/>
		<path class="st0" d="M467.1524,187.34569l-8.65723-31.39941h7.53613l5.42676,21.97949l6.05664-21.97949h5.79883l6.05859,21.98828
			l5.45703-21.98828h7.53613l-8.65723,31.39941h-8.16406l-5.12988-18.61816l-5.12988,18.61816H467.1524z"/>
		<path class="st0" d="M521.78717,184.54198c-2.30371,2.28809-5.11426,3.43164-8.43359,3.43164s-6.13086-1.14355-8.43262-3.43164
			c-2.30371-2.28711-3.4541-5.09082-3.4541-8.41016s1.15039-6.12305,3.4541-8.41113
			c2.30176-2.28711,5.11328-3.43164,8.43262-3.43164s6.12988,1.14453,8.43359,3.43164
			c2.30176,2.28809,3.45312,5.0918,3.45312,8.41113S524.08893,182.25487,521.78717,184.54198z M509.67584,179.94432
			c0.98633,0.9873,2.21191,1.48047,3.67773,1.48047c1.46484,0,2.69141-0.49316,3.67871-1.48047
			c0.98633-0.98633,1.47949-2.25781,1.47949-3.8125s-0.49316-2.82617-1.47949-3.81348
			c-0.9873-0.98633-2.21387-1.47949-3.67871-1.47949c-1.46582,0-2.69141,0.49316-3.67773,1.47949
			c-0.9873,0.9873-1.48047,2.25879-1.48047,3.81348S508.68854,178.95799,509.67584,179.94432z"/>
		<path class="st0" d="M535.78131,168.91014c0.41895-1.43555,1.26367-2.53516,2.53418-3.29688
			c1.27148-0.7627,2.66895-1.14453,4.19434-1.14453v7.62598c-1.64453-0.26953-3.17773,0.00781-4.59766,0.83008
			c-1.4209,0.82227-2.13086,2.25-2.13086,4.2832v10.1377h-6.72852v-22.42773h6.72852V168.91014z"/>
		<path class="st0" d="M552.37799,168.91014c0.41895-1.43555,1.26367-2.53516,2.53418-3.29688
			c1.27148-0.7627,2.66895-1.14453,4.19434-1.14453v7.62598c-1.64453-0.26953-3.17773,0.00781-4.59766,0.83008
			c-1.4209,0.82227-2.13086,2.25-2.13086,4.2832v10.1377h-6.72852v-22.42773h6.72852V168.91014z"/>
		<path class="st0" d="M577.85651,164.91795h6.72852v22.42773h-6.72852v-2.1084c-1.58496,1.82422-3.8125,2.73633-6.68359,2.73633
			c-2.96094,0-5.48828-1.14355-7.58105-3.43164c-2.09277-2.28711-3.13965-5.09082-3.13965-8.41016s1.04688-6.12305,3.13965-8.41113
			c2.09277-2.28711,4.62012-3.43164,7.58105-3.43164c2.87109,0,5.09863,0.91309,6.68359,2.73633V164.91795z M568.66119,180.12401
			c0.98633,0.98633,2.27148,1.48047,3.85742,1.48047c1.58496,0,2.87109-0.49414,3.85742-1.48047
			c0.9873-0.9873,1.48047-2.31738,1.48047-3.99219s-0.49316-3.00586-1.48047-3.99219
			c-0.98633-0.9873-2.27246-1.48047-3.85742-1.48047c-1.58594,0-2.87109,0.49316-3.85742,1.48047
			c-0.9873,0.98633-1.48047,2.31738-1.48047,3.99219S567.67389,179.1367,568.66119,180.12401z"/>
		<path class="st0" d="M589.51862,187.34569v-32.74512h6.72852v32.74512H589.51862z"/>
		<path class="st0" d="M601.18073,187.34569v-32.74512h6.72852v32.74512H601.18073z"/>
	</g>
</g>
<g>
	<path class="st0" d="M167.44489,236.166l-1.46875-4.1582h-9.48877l-1.38623,4.1582h-4.91699l8.08496-23.09961h5.64307
		l8.14941,23.09961H167.44489z M157.97076,227.75096h6.50146l-3.3335-9.4375L157.97076,227.75096z"/>
	<path class="st0" d="M188.23199,213.06639v4.35547h-6.23682V236.166h-4.5542v-18.74414h-6.20361v-4.35547H188.23199z"/>
	<path class="st0" d="M206.3819,213.06639v4.35547h-6.23682V236.166h-4.5542v-18.74414h-6.20361v-4.35547H206.3819z"/>
	<path class="st0" d="M227.37018,233.14647c-2.33203,2.32129-5.17041,3.48145-8.51416,3.48145
		c-3.34424,0-6.17676-1.16016-8.49756-3.48145c-2.32129-2.32031-3.48145-5.16406-3.48145-8.53027s1.16016-6.20898,3.48145-8.53027
		c2.3208-2.32129,5.15332-3.48145,8.49756-3.48145c3.34375,0,6.18213,1.16016,8.51416,3.48145
		c2.33154,2.32129,3.49805,5.16406,3.49805,8.53027S229.70172,230.82616,227.37018,233.14647z M213.54303,230.04491
		c1.43018,1.41895,3.20117,2.12793,5.31299,2.12793c2.1123,0,3.88281-0.70898,5.31299-2.12793s2.14502-3.22852,2.14502-5.42871
		c0-2.19922-0.71484-4.01465-2.14502-5.44531c-1.43018-1.42969-3.20068-2.14453-5.31299-2.14453
		c-2.11182,0-3.88281,0.71484-5.31299,2.14453c-1.43018,1.43066-2.14502,3.24609-2.14502,5.44531
		C211.39801,226.81639,212.11285,228.62596,213.54303,230.04491z"/>
	<path class="st0" d="M247.07037,236.166l-4.66943-8.01855h-3.44824v8.01855h-4.5542v-23.09961h9.23975
		c2.13379,0,3.94873,0.74805,5.44531,2.24414c1.49561,1.49609,2.24414,3.2998,2.24414,5.41211
		c0,1.42969-0.40771,2.75488-1.22119,3.97656c-0.81348,1.2207-1.89209,2.13867-3.2334,2.75488l5.11426,8.71191H247.07037z
		 M238.9527,217.32323v6.83105h4.68555c0.8584,0,1.59521-0.33496,2.21143-1.00684c0.61523-0.6709,0.92383-1.47949,0.92383-2.4248
		c0-0.94629-0.30859-1.74902-0.92383-2.40918c-0.61621-0.66016-1.35303-0.99023-2.21143-0.99023H238.9527z"/>
	<path class="st0" d="M268.35504,213.06639h4.5542V236.166h-3.46484l-9.8999-14.12402V236.166h-4.5542v-23.09961h3.46143
		l9.90332,14.07129V213.06639z"/>
	<path class="st0" d="M282.08307,231.81053h9.73486v4.35547h-14.28906v-23.09961h14.12402v4.35547h-9.56982v4.91699h8.74463v4.29004
		h-8.74463V231.81053z"/>
	<path class="st0" d="M313.62994,213.06639l-7.91992,14.09082v9.00879h-4.52051v-9.00781l-7.88672-14.0918h5.14795l5.00488,9.61719
		l5.02783-9.61719H313.62994z"/>
	<path class="st0" d="M322.73834,236.62791c-2.28809,0-4.21387-0.51074-5.77539-1.53418
		c-1.5625-1.02344-2.66211-2.41406-3.2998-4.1748l3.89355-2.27637c0.90234,2.35449,2.67383,3.53027,5.31348,3.53027
		c1.27539,0,2.21094-0.23047,2.80469-0.69238c0.59473-0.46191,0.8916-1.04492,0.8916-1.74902
		c0-0.81348-0.36328-1.44629-1.08887-1.89746c-0.72656-0.45117-2.02441-0.94043-3.89453-1.46875
		c-1.03418-0.30762-1.90918-0.61523-2.62305-0.92383c-0.71582-0.30762-1.43066-0.7207-2.14551-1.2373
		s-1.25977-1.17188-1.63379-1.96387s-0.56055-1.71582-0.56055-2.77246c0-2.08887,0.74219-3.75586,2.22754-4.99902
		c1.48535-1.24219,3.27246-1.86426,5.3623-1.86426c1.87012,0,3.51465,0.45703,4.93359,1.36914
		c1.41895,0.91309,2.52441,2.18359,3.31641,3.81152l-3.82812,2.21094c-0.92383-1.97949-2.39844-2.96973-4.42188-2.96973
		c-0.94629,0-1.68848,0.21484-2.22754,0.64355s-0.80859,0.98438-0.80859,1.66602c0,0.72656,0.30273,1.31543,0.9082,1.76562
		c0.60449,0.45117,1.76465,0.94043,3.48145,1.46875c0.70312,0.21973,1.2373,0.39062,1.59961,0.51172
		c0.36328,0.12109,0.8584,0.30762,1.48535,0.56055s1.11035,0.49023,1.45215,0.70996c0.34082,0.21973,0.73145,0.5166,1.17188,0.89062
		c0.43945,0.37402,0.77539,0.75879,1.00586,1.15527c0.23145,0.39551,0.42969,0.87402,0.59375,1.43555
		c0.16504,0.56055,0.24805,1.1709,0.24805,1.83105c0,2.13477-0.77539,3.82812-2.32617,5.08203
		C327.24225,236.00096,325.22369,236.62791,322.73834,236.62791z"/>
	<path class="st0" d="M358.18268,236.166l-1.46875-4.1582h-9.48926l-1.38574,4.1582h-4.91699l8.08496-23.09961h5.64355
		l8.14941,23.09961H358.18268z M348.70807,227.75096h6.50195l-3.33301-9.4375L348.70807,227.75096z"/>
	<path class="st0" d="M378.96979,213.06639v4.35547h-6.2373V236.166h-4.55371v-18.74414h-6.2041v-4.35547H378.96979z"/>
	<path class="st0" d="M394.97467,231.81053h8.81055v4.35547h-13.36523v-23.09961h4.55469V231.81053z"/>
	<path class="st0" d="M422.53131,236.166l-1.46875-4.1582h-9.48926l-1.38574,4.1582h-4.91699l8.08496-23.09961h5.64355
		l8.14941,23.09961H422.53131z M413.0567,227.75096h6.50195l-3.33301-9.4375L413.0567,227.75096z"/>
	<path class="st0" d="M432.8692,236.166l-6.11621-23.09961h4.76367l4.44336,17.12695l4.81738-17.12695h3.94531l4.83789,17.08301
		l4.38379-17.08301h4.38672l-6.06934,23.09961h-5.18066l-4.37598-15.32715l-4.3457,15.32715H432.8692z"/>
</g>
<rect x="7.80737" y="225.22798" class="st0" width="125.35211" height="4.22535"/>
<rect x="476.34259" y="223.11531" class="st0" width="125.35211" height="4.22535"/>
<path class="st1" d="M273.22992,72.11024c4.39966-0.78223,8.17859-2.45624,11.33691-5.02087
	c3.15955-2.56396,5.61523-6.03326,7.37067-10.40655c1.75299-4.37329,2.63196-9.71796,2.63196-16.03461
	c0-4.37329-0.46033-8.35425-1.3772-11.94531c-0.91815-3.58984-2.28186-6.64105-4.0899-9.15118
	c-1.80933-2.51074-4.0899-4.4541-6.84302-5.8313c-2.75317-1.37653-5.96655-2.06512-9.6366-2.06512
	c-2.3222,0-4.34698,0.09546-6.07428,0.284c-1.72852,0.18976-3.18646,0.39172-4.37268,0.60718
	c-1.40533,0.27051-2.5658,0.56677-3.48273,0.89056v58.38983C263.98389,72.79884,268.8291,72.89368,273.22992,72.11024z"/>
<path class="st1" d="M166.61383,77.94093c3.29236-0.02631,6.51923-0.05267,9.67755-0.08081
	c3.15833-0.02631,6.1955-0.05322,9.11078-0.08081c2.91534-0.02692,5.56012-0.06732,7.93622-0.12177l-22.75647-51.42499
	l-22.35126,51.74939h8.74597C160.10742,77.98194,163.32025,77.96906,166.61383,77.94093z"/>
<path class="st1" d="M319.31024,19.99665c-0.9989-2.15814-1.94275-4.10211-2.83392-5.83063
	c-0.89117-1.72729-1.70032-3.18463-2.42993-4.37329c-0.72839-1.18683-1.25476-1.97028-1.57916-2.34857V7.29072H285.8855h-0.83569
	c1.35608,0.31311,2.68274,0.68298,3.97174,1.12543c4.39966,1.51245,8.22083,3.7251,11.45996,6.64105
	c3.23914,2.91534,5.76208,6.466,7.57141,10.64893c1.80927,4.18481,2.71393,8.94922,2.71393,14.29389
	c0,7.18091-1.43103,13.39044-4.29309,18.62616c-2.86206,5.23755-6.69495,9.47558-11.50037,12.71472
	c-4.80481,3.23969-10.33923,5.44012-16.60077,6.60004c-6.26404,1.16168-12.82428,1.22906-19.67957,0.20258v13.44373
	c0,4.58936,0.06732,8.59784,0.20203,12.02606c0.13464,3.42889,0.2962,6.38525,0.48596,8.8678
	c0.18854,2.48383,0.43213,4.56305,0.72961,6.2359c0.2962,1.67401,0.60718,3.0769,0.93036,4.21106v0.32379h-19.43597v-0.32379
	c0.3244-1.13416,0.63416-2.53705,0.93158-4.21106c0.29626-1.67285,0.55334-3.75208,0.7688-6.2359
	c0.21545-2.48254,0.37701-5.4389,0.48596-8.8678c0.10773-3.42822,0.16284-7.43671,0.16284-12.02606V38.86647
	c0-4.58813-0.05511-8.59729-0.16284-12.02612c-0.10895-3.42828-0.27051-6.39807-0.48596-8.9082
	c-0.21545-2.51074-0.47253-4.60223-0.7688-6.27686c-0.29742-1.67285-0.60718-3.0769-0.93158-4.21112V7.29072h-63.22693
	l42.81903,96.36298c1.02521,2.32227,2.09149,4.57532,3.19873,6.76227c1.10602,2.18634,2.14655,4.14374,3.11792,5.87103
	c0.97198,1.72852,1.83502,3.18652,2.59155,4.37329c0.75531,1.18805,1.26819,1.94397,1.53876,2.26776v0.32379h-22.1897v-0.32379
	c0.10773-0.2699,0.18854-0.6745,0.24298-1.21497c0.05328-0.53925,0.08081-1.0246,0.08081-1.45734
	c0-1.67346-0.2301-3.52313-0.68799-5.54791c-0.45966-2.02411-1.33612-4.54773-2.6319-7.57202l-9.79938-22.02747
	c-3.02429-0.10773-7.04565-0.16217-12.06653-0.16217s-10.44696,0-16.27759,0c-4.26624,0-8.38245,0-12.35052,0
	c-3.96814,0-7.5451,0.05444-10.73035,0.16217l-9.31342,21.37988c-0.80975,1.99786-1.67401,4.1842-2.59155,6.55969
	c-0.91809,2.37604-1.37653,4.77783-1.37653,7.20782c0,0.70203,0.05322,1.2829,0.16217,1.74072
	c0.10773,0.45966,0.21484,0.76941,0.32379,0.93158v0.32379h-16.52057v-0.32379c0.97198-1.02521,2.18634-2.84735,3.64429-5.46643
	c1.45734-2.61847,3.04938-5.89801,4.77789-9.83978L169.57214,7.29072H125.9455h-3.70294
	c-8.99384,0-16.35242,7.35858-16.35242,16.35242v85.01215c0,8.99377,7.35858,16.35242,16.35242,16.35242h201.91107h9.77142h15.57214
	h12.14923L322.2666,26.71852C321.29462,24.39814,320.30914,22.15669,319.31024,19.99665z"/>
<path class="st2" d="M248.44812,7.64674c1.26819,0.0282,2.57806,0.04041,3.92828,0.04041c1.50787,0,3.40308-0.13324,5.6723-0.39642
	h-14.69977c0.54095,0.05133,1.09235,0.10248,1.65808,0.15344C246.03162,7.55311,247.17987,7.62043,248.44812,7.64674z"/>
<path class="st3" d="M334.73828,8.82136c0,0.32379,0,0.70203,0,1.13354c0,1.83624,0.20203,3.7796,0.60718,5.83069
	c0.40521,2.05292,1.20093,4.53546,2.38959,7.45081l30.44965,76.93518l29.07373-77.42114l5.10107-0.32379l32.39362,78.63556
	l31.50372-77.17822c1.24127-3.18463,2.15814-5.88391,2.75311-8.09839c0.59369-2.21271,0.89117-4.10217,0.89117-5.66846
	c0-0.48602-0.02814-0.98486-0.08081-1.49841c-0.05505-0.51227-0.13586-0.90338-0.24359-1.17456V7.29072H334.8999v0.15344
	C334.79095,8.03913,334.73828,8.49696,334.73828,8.82136z"/>
<polygon class="st3" points="368.30701,125.0077 427.96387,125.0077 396.77246,49.31337 "/>
<path class="st3" d="M503.55621,22.3553c-0.00714-0.0899-0.01544-0.1792-0.02399-0.26868
	c-0.08344-0.88293-0.2345-1.72766-0.44476-2.53351c-0.01013-0.03882-0.02094-0.07727-0.03131-0.11597
	c-0.22644-0.84192-0.51422-1.64142-0.85272-2.39764c-0.02728-0.0611-0.05499-0.12183-0.08307-0.18256
	c-2.91498-6.30597-9.23541-9.56622-10.89716-9.56622h-3.96368h-1.64758v0.15344c-1.08093,1.18866-2.25488,3.07751-3.52313,5.66907
	c-1.26941,2.59155-2.74084,5.80432-4.41309,9.63721L434.74683,125.0077h52.5127c1.34698,0,2.65015-0.18323,3.90454-0.49408h0.05914
	v-0.01532c7.09143-1.78601,12.38873-8.21747,12.38873-15.84302V23.64314C503.61194,23.20417,503.58905,22.77705,503.55621,22.3553z"
	/>
</svg>
